<svg width="70" height="70" viewBox="0 0 70 70" fill="none" xmlns="http://www.w3.org/2000/svg">
<circle cx="35" cy="35" r="35" fill="#8D4AE3"/>
<path d="M24.0799 48.522C24.0799 47.9075 23.6672 47.4979 23.0481 47.4979H5.09531C4.47625 47.4979 4.06354 47.9075 4.06354 48.522C4.06354 49.1364 4.47625 49.546 5.09531 49.546H23.0481C23.6672 49.546 24.0799 49.034 24.0799 48.522Z" fill="white"/>
<path d="M9.22237 52.6182H7.15883C6.53977 52.6182 6.12706 53.0278 6.12706 53.6422C6.12706 54.2566 6.53977 54.6663 7.15883 54.6663H9.22237C9.84143 54.6663 10.2541 54.2566 10.2541 53.6422C10.2541 53.0278 9.84143 52.6182 9.22237 52.6182Z" fill="white"/>
<path d="M14.0717 43.4019C14.0717 42.7874 13.659 42.3778 13.0399 42.3778H3.03177C2.41271 42.3778 2 42.7874 2 43.4019C2 44.0163 2.41271 44.4259 3.03177 44.4259H13.0399C13.659 44.4259 14.0717 43.9139 14.0717 43.4019Z" fill="white"/>
<path d="M65.3507 45.1427C65.0411 44.5282 64.4221 44.0162 63.803 43.709L55.9616 40.7392L52.7631 39.6128C51.8345 39.2032 51.0091 38.5887 50.4932 37.7695L47.8106 33.3661C48.3265 33.2637 48.636 32.8541 48.636 32.342C48.636 31.7276 48.2233 31.318 47.6042 31.318H46.5725L45.3343 29.2699C45.8502 29.1675 46.1597 28.7579 46.1597 28.2458C46.1597 27.6314 45.747 27.2218 45.128 27.2218H44.0962L43.0644 25.5833C43.4771 25.4809 43.7867 25.0713 43.7867 24.6617C43.7867 24.0472 43.374 23.6376 42.7549 23.6376H41.8263L40.485 21.4871C40.485 21.4871 40.485 21.3847 40.3818 21.3847C39.1437 19.951 37.4929 19.2342 35.7389 19.439C34.1912 19.6438 32.9531 20.5655 32.4372 21.6919C32.334 21.9991 32.334 22.3063 32.5404 22.6136L41.1041 37.1551C41.2073 37.3599 41.4136 37.5647 41.62 37.5647L52.144 41.5585H52.2472L55.3425 42.6849L63.0808 45.6547C63.2871 45.7571 63.4935 45.8595 63.5967 46.1667C64.0094 46.9859 64.0094 47.8052 63.4935 48.6244H46.6756C45.6439 48.6244 44.6121 48.3172 43.7867 47.7028L15.0003 26.5049C15.0003 26.5049 15.413 26.3001 15.9289 25.5833C16.4448 24.8665 16.6511 23.9448 16.6511 23.0232L15.7225 14.4212L16.9607 12.4755C17.2702 12.0658 17.8893 11.9634 18.302 12.2707C18.6115 12.5779 19.8496 13.6019 22.8418 18.415C24.3894 20.6679 26.8657 22.3063 29.6514 22.716C30.1673 22.8184 30.7864 22.4087 30.8896 21.8967C30.9927 21.3847 30.58 20.7703 30.0641 20.6679C27.8974 20.2582 25.8339 19.0294 24.5958 17.1861C20.9846 11.6562 19.9528 10.837 19.5401 10.5298C18.1988 9.60812 16.3416 9.91534 15.3098 11.2466L9.01604 21.1799C8.60333 21.7943 8.50015 22.5111 8.60333 23.228C7.98427 23.4328 7.36521 23.74 7.05568 24.3544L5.40484 26.9146C4.47625 28.2458 4.88896 30.0891 6.23026 31.0108C7.15885 31.7276 9.11921 32.9565 12.0082 34.7997C12.2145 34.9022 12.4209 35.0046 12.5241 35.0046C12.8336 35.0046 13.1431 34.7997 13.3495 34.4925C13.659 33.9805 13.5558 33.3661 13.0399 33.0589C10.2542 31.2156 8.2938 29.9867 7.36521 29.2699C6.9525 28.9627 6.84932 28.4506 7.15885 27.9386L8.70651 25.5833C9.01604 25.1737 9.6351 25.0713 10.0478 25.3785L42.4454 49.3413C43.6835 50.2629 45.128 50.6725 46.5725 50.6725H60.8109C58.6442 51.6966 55.652 52.6182 53.0726 52.6182H49.4614H46.4693C44.7153 52.6182 42.9613 52.1062 41.5168 51.1845C35.5325 47.3956 24.3894 40.3296 16.2384 35.107C15.7225 34.7997 15.1035 34.9022 14.7939 35.4142C14.4844 35.9262 14.5876 36.5406 15.1035 36.8478C23.0481 41.9681 33.8817 48.8292 39.9691 52.7206H13.3495C12.7304 52.7206 12.3177 53.1302 12.3177 53.7447C12.3177 54.3591 12.7304 54.7687 13.3495 54.7687H46.4693H49.4614H52.9694C57.1997 54.7687 63.2871 52.5158 64.8348 50.3653C66.1761 48.522 66.2793 46.7811 65.3507 45.1427ZM42.5486 35.9262L34.5007 22.3063C34.8103 21.9991 35.3262 21.6919 35.9452 21.5895C36.5643 21.4871 37.6992 21.5895 38.731 22.716L39.3501 23.74H38.4215C37.8024 23.74 37.3897 24.1496 37.3897 24.7641C37.3897 25.3785 37.8024 25.7881 38.4215 25.7881H40.5882L41.62 27.4266H40.7945C40.1755 27.4266 39.7628 27.8362 39.7628 28.4506C39.7628 29.0651 40.1755 29.4747 40.7945 29.4747H42.8581L44.0962 31.4204H43.2708C42.6517 31.4204 42.239 31.83 42.239 32.4444C42.239 33.0589 42.6517 33.4685 43.2708 33.4685H45.3343L48.2233 37.9743L42.5486 35.9262ZM10.77 22.3063L13.9685 17.2885L14.5876 23.228C14.5876 23.6376 14.4844 24.0472 14.2781 24.3544C14.0717 24.6617 13.659 25.4809 12.7304 24.7641C12.7304 24.7641 12.2145 24.4568 11.2859 23.74C10.6669 23.228 10.5637 22.716 10.77 22.3063Z" fill="white"/>
</svg>
